# xmcd CD database file
#
# Track frame offsets:
#	150
#	15818
#	31075
#	46688
#	63620
#	79055
#	99565
#	116581
#	133040
#	150973
#	162311
#	179515
#	194004
#	205705
#	218427
#	233189
#	246625
#
# Disc length: 3503 seconds
#
# Revision: 0
# Processed by: cddbd v1.5.1PL0 Copyright (c) Steve Scherf et al.
# Submitted via: CDex 1.51
#
DISCID=db0dad11
DTITLE=Various Artist - Promo Only Canada June 2004 Country Radio
DYEAR=2004
DGENRE=Country
TTITLE0=Terri Clark - Girls Lie Too
TTITLE1=Trent Wilmon  - Beer Man (Album Version)
TTITLE2=Phil Vassar - In A Real Love
TTITLE3=Sara Evans - Suds In The Bucket
TTITLE4=Josh Turner - What It Ain't
TTITLE5=Jessi Alexander - Honeysuckle Sweet (Album Version)
TTITLE6=Josh Gracin - I Want To Live
TTITLE7=Mary Chapin Carpenter - What Would You Say To Me (Album Version)
TTITLE8=Patty Loveless - I Wanna Believe (Album Version)
TTITLE9=Craig Morgan - Look At Us
TTITLE10=Martina McBride - How Far
TTITLE11=Steve Holy - Put Your Best Dress On
TTITLE12=Jason McCoy - I Feel A Sin Comin' On
TTITLE13=Travis Tritt - The Girls Gone Wild
TTITLE14=Brad Cotter - I Meant To
TTITLE15=Buddy Jewel - One Step At A Time
TTITLE16=Blue Country - That's Cool
EXTD=YEAR: 2004
EXTT0=
EXTT1=
EXTT2=
EXTT3=
EXTT4=
EXTT5=
EXTT6=
EXTT7=
EXTT8=
EXTT9=
EXTT10=
EXTT11=
EXTT12=
EXTT13=
EXTT14=
EXTT15=
EXTT16=
PLAYORDER=
